<?xml version="1.0" encoding="utf-8" ?>
<svg xmlns="http://www.w3.org/2000/svg" xmlns:xlink="http://www.w3.org/1999/xlink" width="48" height="43">
	<defs>
		<clipPath id="clip_0">
			<rect x="-116.76001" y="-1458.4" width="2822.4001" height="1568" clip-rule="evenodd"/>
		</clipPath>
	</defs>
	<g clip-path="url(#clip_0)">
		<path fill="rgb(239,174,195)" stroke="none" transform="matrix(1.96 0 0 1.96 0.840332 0.552368)" d="M23.9588 6.34304C23.6085 2.66728 20.8794 0.00044 17.464 0.00044C15.1887 0.00044 13.1053 1.16776 11.933 3.03864C10.7713 1.14356 8.77328 0 6.53435 0C3.11943 0 0.389891 2.66684 0.0400446 6.3426C0.0123523 6.50496 -0.101186 7.35944 0.244045 8.75292C0.741583 10.7628 1.89081 12.591 3.56666 14.0386L11.9274 21.2718L20.4317 14.0391C22.1076 12.591 23.2568 10.7633 23.7544 8.75292C24.0996 7.35988 23.986 6.5054 23.9588 6.34304Z"/>
	</g>

</svg>